<svg id="visual" viewBox="0 0 960 540" width="960" height="540" xmlns="http://www.w3.org/2000/svg" xmlns:xlink="http://www.w3.org/1999/xlink" version="1.1"><rect x="0" y="0" width="960" height="540" fill="#FFF"></rect><path d="M475 0L478.2 18C481.3 36 487.7 72 482 108C476.3 144 458.7 180 458.3 216C458 252 475 288 485.5 324C496 360 500 396 497.2 432C494.3 468 484.7 504 479.8 522L475 540L0 540L0 522C0 504 0 468 0 432C0 396 0 360 0 324C0 288 0 252 0 216C0 180 0 144 0 108C0 72 0 36 0 18L0 0Z" fill="#1D2539"></path></svg>